<?xml version="1.0" encoding="UTF-8" standalone="no"?>
<!DOCTYPE svg PUBLIC "-//W3C//DTD SVG 1.1//EN" "http://www.w3.org/Graphics/SVG/1.1/DTD/svg11.dtd">
<!-- Generated by Microsoft Visio, SVG Export UI - board.svg Page-1 -->
<svg xmlns="http://www.w3.org/2000/svg" xmlns:xlink="http://www.w3.org/1999/xlink" xmlns:ev="http://www.w3.org/2001/xml-events"
		xmlns:v="http://schemas.microsoft.com/visio/2003/SVGExtensions/" width="20.5781in" height="20.6805in"
		viewBox="0 0 1481.63 1489" xml:space="preserve" color-interpolation-filters="sRGB" class="st6">
	<v:documentProperties v:langID="6153" v:metric="true" v:viewMarkup="false">
		<v:userDefs>
			<v:ud v:nameU="msvNoAutoConnect" v:val="VT0(1):26"/>
		</v:userDefs>
	</v:documentProperties>

	<style type="text/css">
	<![CDATA[
		.st1 {fill:#c00000;stroke:#000000;stroke-linecap:round;stroke-linejoin:round;stroke-width:0.24}
		.st2 {fill:#595959;stroke:#000000;stroke-linecap:round;stroke-linejoin:round;stroke-width:0.24}
		.st3 {fill:#92d050;stroke:#000000;stroke-linecap:round;stroke-linejoin:round;stroke-width:0.24}
		.st4 {fill:#ffff00;stroke:#000000;stroke-linecap:round;stroke-linejoin:round;stroke-width:0.24}
		.st5 {fill:#00b0f0;stroke:#000000;stroke-linecap:round;stroke-linejoin:round;stroke-width:0.24}
		.st6 {fill:none;fill-rule:evenodd;font-size:12px;overflow:visible;stroke-linecap:square;stroke-miterlimit:3}
	]]>
	</style>

	<g v:mID="0" v:index="1" v:groupContext="foregroundPage">
		<title>Page-1</title>
		<v:pageProperties v:drawingScale="0.0393701" v:pageScale="0.0393701" v:drawingUnits="24" v:shadowOffsetX="8.50394"
				v:shadowOffsetY="-8.50394"/>
		<v:layer v:name="Callout" v:index="0"/>
		<g id="shape5-1" v:mID="5" v:groupContext="shape" transform="translate(18.12,-815.364)">
			<title>Circle</title>
			<v:userDefs>
				<v:ud v:nameU="visVersion" v:val="VT0(15):26"/>
			</v:userDefs>
			<path d="M0 1432.3 A56.6929 56.6929 0 0 1 113.39 1432.3 A56.6929 56.6929 0 1 1 0 1432.3 Z" class="st1"/>
		</g>
		<g id="shape6-3" v:mID="6" v:groupContext="shape" transform="translate(152.766,-815.364)">
			<title>Circle.6</title>
			<v:userDefs>
				<v:ud v:nameU="visVersion" v:val="VT0(15):26"/>
			</v:userDefs>
			<path d="M0 1432.3 A56.6929 56.6929 0 0 1 113.39 1432.3 A56.6929 56.6929 0 1 1 0 1432.3 Z" class="st2"/>
		</g>
		<g id="shape7-5" v:mID="7" v:groupContext="shape" transform="translate(287.411,-815.364)">
			<title>Circle.7</title>
			<v:userDefs>
				<v:ud v:nameU="visVersion" v:val="VT0(15):26"/>
			</v:userDefs>
			<path d="M0 1432.3 A56.6929 56.6929 0 0 1 113.39 1432.3 A56.6929 56.6929 0 1 1 0 1432.3 Z" class="st2"/>
		</g>
		<g id="shape8-7" v:mID="8" v:groupContext="shape" transform="translate(422.057,-815.364)">
			<title>Circle.8</title>
			<v:userDefs>
				<v:ud v:nameU="visVersion" v:val="VT0(15):26"/>
			</v:userDefs>
			<path d="M0 1432.3 A56.6929 56.6929 0 0 1 113.39 1432.3 A56.6929 56.6929 0 1 1 0 1432.3 Z" class="st2"/>
		</g>
		<g id="shape9-9" v:mID="9" v:groupContext="shape" transform="translate(556.703,-815.364)">
			<title>Circle.9</title>
			<v:userDefs>
				<v:ud v:nameU="visVersion" v:val="VT0(15):26"/>
			</v:userDefs>
			<path d="M0 1432.3 A56.6929 56.6929 0 0 1 113.39 1432.3 A56.6929 56.6929 0 1 1 0 1432.3 Z" class="st2"/>
		</g>
		<g id="shape20-11" v:mID="20" v:groupContext="shape" transform="translate(18.12,-687.805)">
			<title>Circle.20</title>
			<v:userDefs>
				<v:ud v:nameU="visVersion" v:val="VT0(15):26"/>
			</v:userDefs>
			<path d="M0 1432.3 A56.6929 56.6929 0 0 1 113.39 1432.3 A56.6929 56.6929 0 1 1 0 1432.3 Z" class="st2"/>
		</g>
		<g id="shape21-13" v:mID="21" v:groupContext="shape" transform="translate(152.766,-687.805)">
			<title>Circle.21</title>
			<v:userDefs>
				<v:ud v:nameU="visVersion" v:val="VT0(15):26"/>
			</v:userDefs>
			<path d="M0 1432.3 A56.6929 56.6929 0 0 1 113.39 1432.3 A56.6929 56.6929 0 1 1 0 1432.3 Z" class="st1"/>
		</g>
		<g id="shape22-15" v:mID="22" v:groupContext="shape" transform="translate(287.411,-687.805)">
			<title>Circle.22</title>
			<v:userDefs>
				<v:ud v:nameU="visVersion" v:val="VT0(15):26"/>
			</v:userDefs>
			<path d="M0 1432.3 A56.6929 56.6929 0 0 1 113.39 1432.3 A56.6929 56.6929 0 1 1 0 1432.3 Z" class="st1"/>
		</g>
		<g id="shape23-17" v:mID="23" v:groupContext="shape" transform="translate(422.057,-687.805)">
			<title>Circle.23</title>
			<v:userDefs>
				<v:ud v:nameU="visVersion" v:val="VT0(15):26"/>
			</v:userDefs>
			<path d="M0 1432.3 A56.6929 56.6929 0 0 1 113.39 1432.3 A56.6929 56.6929 0 1 1 0 1432.3 Z" class="st1"/>
		</g>
		<g id="shape24-19" v:mID="24" v:groupContext="shape" transform="translate(556.703,-687.805)">
			<title>Circle.24</title>
			<v:userDefs>
				<v:ud v:nameU="visVersion" v:val="VT0(15):26"/>
			</v:userDefs>
			<path d="M0 1432.3 A56.6929 56.6929 0 0 1 113.39 1432.3 A56.6929 56.6929 0 1 1 0 1432.3 Z" class="st1"/>
		</g>
		<g id="shape25-21" v:mID="25" v:groupContext="shape" transform="translate(18.12,-560.246)">
			<title>Circle.25</title>
			<v:userDefs>
				<v:ud v:nameU="visVersion" v:val="VT0(15):26"/>
			</v:userDefs>
			<path d="M0 1432.3 A56.6929 56.6929 0 0 1 113.39 1432.3 A56.6929 56.6929 0 1 1 0 1432.3 Z" class="st2"/>
		</g>
		<g id="shape26-23" v:mID="26" v:groupContext="shape" transform="translate(152.766,-560.246)">
			<title>Circle.26</title>
			<v:userDefs>
				<v:ud v:nameU="visVersion" v:val="VT0(15):26"/>
			</v:userDefs>
			<path d="M0 1432.3 A56.6929 56.6929 0 0 1 113.39 1432.3 A56.6929 56.6929 0 1 1 0 1432.3 Z" class="st2"/>
		</g>
		<g id="shape27-25" v:mID="27" v:groupContext="shape" transform="translate(287.411,-560.246)">
			<title>Circle.27</title>
			<v:userDefs>
				<v:ud v:nameU="visVersion" v:val="VT0(15):26"/>
			</v:userDefs>
			<path d="M0 1432.3 A56.6929 56.6929 0 0 1 113.39 1432.3 A56.6929 56.6929 0 1 1 0 1432.3 Z" class="st2"/>
		</g>
		<g id="shape28-27" v:mID="28" v:groupContext="shape" transform="translate(422.057,-560.246)">
			<title>Circle.28</title>
			<v:userDefs>
				<v:ud v:nameU="visVersion" v:val="VT0(15):26"/>
			</v:userDefs>
			<path d="M0 1432.3 A56.6929 56.6929 0 0 1 113.39 1432.3 A56.6929 56.6929 0 1 1 0 1432.3 Z" class="st2"/>
		</g>
		<g id="shape29-29" v:mID="29" v:groupContext="shape" transform="translate(556.703,-560.246)">
			<title>Circle.29</title>
			<v:userDefs>
				<v:ud v:nameU="visVersion" v:val="VT0(15):26"/>
			</v:userDefs>
			<path d="M0 1432.3 A56.6929 56.6929 0 0 1 113.39 1432.3 A56.6929 56.6929 0 1 1 0 1432.3 Z" class="st2"/>
		</g>
		<g id="shape30-31" v:mID="30" v:groupContext="shape" transform="translate(2300.53,22.0413) rotate(90)">
			<title>Circle.30</title>
			<v:userDefs>
				<v:ud v:nameU="visVersion" v:val="VT0(15):26"/>
			</v:userDefs>
			<path d="M0 1432.3 A56.6929 56.6929 0 0 1 113.39 1432.3 A56.6929 56.6929 0 1 1 0 1432.3 Z" class="st3"/>
		</g>
		<g id="shape31-33" v:mID="31" v:groupContext="shape" transform="translate(2300.53,156.687) rotate(90)">
			<title>Circle.31</title>
			<v:userDefs>
				<v:ud v:nameU="visVersion" v:val="VT0(15):26"/>
			</v:userDefs>
			<path d="M0 1432.3 A56.6929 56.6929 0 0 1 113.39 1432.3 A56.6929 56.6929 0 1 1 0 1432.3 Z" class="st2"/>
		</g>
		<g id="shape32-35" v:mID="32" v:groupContext="shape" transform="translate(2300.53,291.333) rotate(90)">
			<title>Circle.32</title>
			<v:userDefs>
				<v:ud v:nameU="visVersion" v:val="VT0(15):26"/>
			</v:userDefs>
			<path d="M0 1432.3 A56.6929 56.6929 0 0 1 113.39 1432.3 A56.6929 56.6929 0 1 1 0 1432.3 Z" class="st2"/>
		</g>
		<g id="shape33-37" v:mID="33" v:groupContext="shape" transform="translate(2300.53,425.978) rotate(90)">
			<title>Circle.33</title>
			<v:userDefs>
				<v:ud v:nameU="visVersion" v:val="VT0(15):26"/>
			</v:userDefs>
			<path d="M0 1432.3 A56.6929 56.6929 0 0 1 113.39 1432.3 A56.6929 56.6929 0 1 1 0 1432.3 Z" class="st2"/>
		</g>
		<g id="shape34-39" v:mID="34" v:groupContext="shape" transform="translate(2300.53,560.624) rotate(90)">
			<title>Circle.34</title>
			<v:userDefs>
				<v:ud v:nameU="visVersion" v:val="VT0(15):26"/>
			</v:userDefs>
			<path d="M0 1432.3 A56.6929 56.6929 0 0 1 113.39 1432.3 A56.6929 56.6929 0 1 1 0 1432.3 Z" class="st2"/>
		</g>
		<g id="shape35-41" v:mID="35" v:groupContext="shape" transform="translate(2172.97,22.0413) rotate(90)">
			<title>Circle.35</title>
			<v:userDefs>
				<v:ud v:nameU="visVersion" v:val="VT0(15):26"/>
			</v:userDefs>
			<path d="M0 1432.3 A56.6929 56.6929 0 0 1 113.39 1432.3 A56.6929 56.6929 0 1 1 0 1432.3 Z" class="st2"/>
		</g>
		<g id="shape36-43" v:mID="36" v:groupContext="shape" transform="translate(2172.97,156.687) rotate(90)">
			<title>Circle.36</title>
			<v:userDefs>
				<v:ud v:nameU="visVersion" v:val="VT0(15):26"/>
			</v:userDefs>
			<path d="M0 1432.3 A56.6929 56.6929 0 0 1 113.39 1432.3 A56.6929 56.6929 0 1 1 0 1432.3 Z" class="st3"/>
		</g>
		<g id="shape37-45" v:mID="37" v:groupContext="shape" transform="translate(2172.97,291.333) rotate(90)">
			<title>Circle.37</title>
			<v:userDefs>
				<v:ud v:nameU="visVersion" v:val="VT0(15):26"/>
			</v:userDefs>
			<path d="M0 1432.3 A56.6929 56.6929 0 0 1 113.39 1432.3 A56.6929 56.6929 0 1 1 0 1432.3 Z" class="st3"/>
		</g>
		<g id="shape38-47" v:mID="38" v:groupContext="shape" transform="translate(2172.97,425.978) rotate(90)">
			<title>Circle.38</title>
			<v:userDefs>
				<v:ud v:nameU="visVersion" v:val="VT0(15):26"/>
			</v:userDefs>
			<path d="M0 1432.3 A56.6929 56.6929 0 0 1 113.39 1432.3 A56.6929 56.6929 0 1 1 0 1432.3 Z" class="st3"/>
		</g>
		<g id="shape39-49" v:mID="39" v:groupContext="shape" transform="translate(2172.97,560.624) rotate(90)">
			<title>Circle.39</title>
			<v:userDefs>
				<v:ud v:nameU="visVersion" v:val="VT0(15):26"/>
			</v:userDefs>
			<path d="M0 1432.3 A56.6929 56.6929 0 0 1 113.39 1432.3 A56.6929 56.6929 0 1 1 0 1432.3 Z" class="st3"/>
		</g>
		<g id="shape40-51" v:mID="40" v:groupContext="shape" transform="translate(2045.42,22.0413) rotate(90)">
			<title>Circle.40</title>
			<v:userDefs>
				<v:ud v:nameU="visVersion" v:val="VT0(15):26"/>
			</v:userDefs>
			<path d="M0 1432.3 A56.6929 56.6929 0 0 1 113.39 1432.3 A56.6929 56.6929 0 1 1 0 1432.3 Z" class="st2"/>
		</g>
		<g id="shape41-53" v:mID="41" v:groupContext="shape" transform="translate(2045.42,156.687) rotate(90)">
			<title>Circle.41</title>
			<v:userDefs>
				<v:ud v:nameU="visVersion" v:val="VT0(15):26"/>
			</v:userDefs>
			<path d="M0 1432.3 A56.6929 56.6929 0 0 1 113.39 1432.3 A56.6929 56.6929 0 1 1 0 1432.3 Z" class="st2"/>
		</g>
		<g id="shape42-55" v:mID="42" v:groupContext="shape" transform="translate(2045.42,291.333) rotate(90)">
			<title>Circle.42</title>
			<v:userDefs>
				<v:ud v:nameU="visVersion" v:val="VT0(15):26"/>
			</v:userDefs>
			<path d="M0 1432.3 A56.6929 56.6929 0 0 1 113.39 1432.3 A56.6929 56.6929 0 1 1 0 1432.3 Z" class="st2"/>
		</g>
		<g id="shape43-57" v:mID="43" v:groupContext="shape" transform="translate(2045.42,425.978) rotate(90)">
			<title>Circle.43</title>
			<v:userDefs>
				<v:ud v:nameU="visVersion" v:val="VT0(15):26"/>
			</v:userDefs>
			<path d="M0 1432.3 A56.6929 56.6929 0 0 1 113.39 1432.3 A56.6929 56.6929 0 1 1 0 1432.3 Z" class="st2"/>
		</g>
		<g id="shape45-59" v:mID="45" v:groupContext="shape" transform="translate(2300.63,815.567) rotate(90)">
			<title>Circle.45</title>
			<v:userDefs>
				<v:ud v:nameU="visVersion" v:val="VT0(15):26"/>
			</v:userDefs>
			<path d="M0 1432.3 A56.6929 56.6929 0 0 1 113.39 1432.3 A56.6929 56.6929 0 1 1 0 1432.3 Z" class="st2"/>
		</g>
		<g id="shape46-61" v:mID="46" v:groupContext="shape" transform="translate(2300.63,950.212) rotate(90)">
			<title>Circle.46</title>
			<v:userDefs>
				<v:ud v:nameU="visVersion" v:val="VT0(15):26"/>
			</v:userDefs>
			<path d="M0 1432.3 A56.6929 56.6929 0 0 1 113.39 1432.3 A56.6929 56.6929 0 1 1 0 1432.3 Z" class="st2"/>
		</g>
		<g id="shape47-63" v:mID="47" v:groupContext="shape" transform="translate(2300.63,1084.86) rotate(90)">
			<title>Circle.47</title>
			<v:userDefs>
				<v:ud v:nameU="visVersion" v:val="VT0(15):26"/>
			</v:userDefs>
			<path d="M0 1432.3 A56.6929 56.6929 0 0 1 113.39 1432.3 A56.6929 56.6929 0 1 1 0 1432.3 Z" class="st2"/>
		</g>
		<g id="shape48-65" v:mID="48" v:groupContext="shape" transform="translate(2300.63,1219.5) rotate(90)">
			<title>Circle.48</title>
			<v:userDefs>
				<v:ud v:nameU="visVersion" v:val="VT0(15):26"/>
			</v:userDefs>
			<path d="M0 1432.3 A56.6929 56.6929 0 0 1 113.39 1432.3 A56.6929 56.6929 0 1 1 0 1432.3 Z" class="st2"/>
		</g>
		<g id="shape49-67" v:mID="49" v:groupContext="shape" transform="translate(2300.63,1354.15) rotate(90)">
			<title>Circle.49</title>
			<v:userDefs>
				<v:ud v:nameU="visVersion" v:val="VT0(15):26"/>
			</v:userDefs>
			<path d="M0 1432.3 A56.6929 56.6929 0 0 1 113.39 1432.3 A56.6929 56.6929 0 1 1 0 1432.3 Z" class="st2"/>
		</g>
		<g id="shape50-69" v:mID="50" v:groupContext="shape" transform="translate(2173.08,815.567) rotate(90)">
			<title>Circle.50</title>
			<v:userDefs>
				<v:ud v:nameU="visVersion" v:val="VT0(15):26"/>
			</v:userDefs>
			<path d="M0 1432.3 A56.6929 56.6929 0 0 1 113.39 1432.3 A56.6929 56.6929 0 1 1 0 1432.3 Z" class="st4"/>
		</g>
		<g id="shape51-71" v:mID="51" v:groupContext="shape" transform="translate(2173.08,950.212) rotate(90)">
			<title>Circle.51</title>
			<v:userDefs>
				<v:ud v:nameU="visVersion" v:val="VT0(15):26"/>
			</v:userDefs>
			<path d="M0 1432.3 A56.6929 56.6929 0 0 1 113.39 1432.3 A56.6929 56.6929 0 1 1 0 1432.3 Z" class="st4"/>
		</g>
		<g id="shape52-73" v:mID="52" v:groupContext="shape" transform="translate(2173.08,1084.86) rotate(90)">
			<title>Circle.52</title>
			<v:userDefs>
				<v:ud v:nameU="visVersion" v:val="VT0(15):26"/>
			</v:userDefs>
			<path d="M0 1432.3 A56.6929 56.6929 0 0 1 113.39 1432.3 A56.6929 56.6929 0 1 1 0 1432.3 Z" class="st4"/>
		</g>
		<g id="shape53-75" v:mID="53" v:groupContext="shape" transform="translate(2173.08,1219.5) rotate(90)">
			<title>Circle.53</title>
			<v:userDefs>
				<v:ud v:nameU="visVersion" v:val="VT0(15):26"/>
			</v:userDefs>
			<path d="M0 1432.3 A56.6929 56.6929 0 0 1 113.39 1432.3 A56.6929 56.6929 0 1 1 0 1432.3 Z" class="st4"/>
		</g>
		<g id="shape54-77" v:mID="54" v:groupContext="shape" transform="translate(2173.08,1354.15) rotate(90)">
			<title>Circle.54</title>
			<v:userDefs>
				<v:ud v:nameU="visVersion" v:val="VT0(15):26"/>
			</v:userDefs>
			<path d="M0 1432.3 A56.6929 56.6929 0 0 1 113.39 1432.3 A56.6929 56.6929 0 1 1 0 1432.3 Z" class="st2"/>
		</g>
		<g id="shape56-79" v:mID="56" v:groupContext="shape" transform="translate(2045.52,950.212) rotate(90)">
			<title>Circle.56</title>
			<v:userDefs>
				<v:ud v:nameU="visVersion" v:val="VT0(15):26"/>
			</v:userDefs>
			<path d="M0 1432.3 A56.6929 56.6929 0 0 1 113.39 1432.3 A56.6929 56.6929 0 1 1 0 1432.3 Z" class="st2"/>
		</g>
		<g id="shape57-81" v:mID="57" v:groupContext="shape" transform="translate(2045.52,1084.86) rotate(90)">
			<title>Circle.57</title>
			<v:userDefs>
				<v:ud v:nameU="visVersion" v:val="VT0(15):26"/>
			</v:userDefs>
			<path d="M0 1432.3 A56.6929 56.6929 0 0 1 113.39 1432.3 A56.6929 56.6929 0 1 1 0 1432.3 Z" class="st2"/>
		</g>
		<g id="shape58-83" v:mID="58" v:groupContext="shape" transform="translate(2045.52,1219.5) rotate(90)">
			<title>Circle.58</title>
			<v:userDefs>
				<v:ud v:nameU="visVersion" v:val="VT0(15):26"/>
			</v:userDefs>
			<path d="M0 1432.3 A56.6929 56.6929 0 0 1 113.39 1432.3 A56.6929 56.6929 0 1 1 0 1432.3 Z" class="st2"/>
		</g>
		<g id="shape59-85" v:mID="59" v:groupContext="shape" transform="translate(2045.52,1354.15) rotate(90)">
			<title>Circle.59</title>
			<v:userDefs>
				<v:ud v:nameU="visVersion" v:val="VT0(15):26"/>
			</v:userDefs>
			<path d="M0 1432.3 A56.6929 56.6929 0 0 1 113.39 1432.3 A56.6929 56.6929 0 1 1 0 1432.3 Z" class="st4"/>
		</g>
		<g id="shape61-87" v:mID="61" v:groupContext="shape" transform="translate(946.183,-815.364)">
			<title>Circle.61</title>
			<v:userDefs>
				<v:ud v:nameU="visVersion" v:val="VT0(15):26"/>
			</v:userDefs>
			<path d="M0 1432.3 A56.6929 56.6929 0 0 1 113.39 1432.3 A56.6929 56.6929 0 1 1 0 1432.3 Z" class="st2"/>
		</g>
		<g id="shape62-89" v:mID="62" v:groupContext="shape" transform="translate(1080.83,-815.364)">
			<title>Circle.62</title>
			<v:userDefs>
				<v:ud v:nameU="visVersion" v:val="VT0(15):26"/>
			</v:userDefs>
			<path d="M0 1432.3 A56.6929 56.6929 0 0 1 113.39 1432.3 A56.6929 56.6929 0 1 1 0 1432.3 Z" class="st2"/>
		</g>
		<g id="shape63-91" v:mID="63" v:groupContext="shape" transform="translate(1215.47,-815.364)">
			<title>Circle.63</title>
			<v:userDefs>
				<v:ud v:nameU="visVersion" v:val="VT0(15):26"/>
			</v:userDefs>
			<path d="M0 1432.3 A56.6929 56.6929 0 0 1 113.39 1432.3 A56.6929 56.6929 0 1 1 0 1432.3 Z" class="st2"/>
		</g>
		<g id="shape64-93" v:mID="64" v:groupContext="shape" transform="translate(1350.12,-815.364)">
			<title>Circle.64</title>
			<v:userDefs>
				<v:ud v:nameU="visVersion" v:val="VT0(15):26"/>
			</v:userDefs>
			<path d="M0 1432.3 A56.6929 56.6929 0 0 1 113.39 1432.3 A56.6929 56.6929 0 1 1 0 1432.3 Z" class="st2"/>
		</g>
		<g id="shape65-95" v:mID="65" v:groupContext="shape" transform="translate(811.537,-687.805)">
			<title>Circle.65</title>
			<v:userDefs>
				<v:ud v:nameU="visVersion" v:val="VT0(15):26"/>
			</v:userDefs>
			<path d="M0 1432.3 A56.6929 56.6929 0 0 1 113.39 1432.3 A56.6929 56.6929 0 1 1 0 1432.3 Z" class="st5"/>
		</g>
		<g id="shape66-97" v:mID="66" v:groupContext="shape" transform="translate(946.183,-687.805)">
			<title>Circle.66</title>
			<v:userDefs>
				<v:ud v:nameU="visVersion" v:val="VT0(15):26"/>
			</v:userDefs>
			<path d="M0 1432.3 A56.6929 56.6929 0 0 1 113.39 1432.3 A56.6929 56.6929 0 1 1 0 1432.3 Z" class="st5"/>
		</g>
		<g id="shape67-99" v:mID="67" v:groupContext="shape" transform="translate(1080.83,-687.805)">
			<title>Circle.67</title>
			<v:userDefs>
				<v:ud v:nameU="visVersion" v:val="VT0(15):26"/>
			</v:userDefs>
			<path d="M0 1432.3 A56.6929 56.6929 0 0 1 113.39 1432.3 A56.6929 56.6929 0 1 1 0 1432.3 Z" class="st5"/>
		</g>
		<g id="shape68-101" v:mID="68" v:groupContext="shape" transform="translate(1215.47,-687.805)">
			<title>Circle.68</title>
			<v:userDefs>
				<v:ud v:nameU="visVersion" v:val="VT0(15):26"/>
			</v:userDefs>
			<path d="M0 1432.3 A56.6929 56.6929 0 0 1 113.39 1432.3 A56.6929 56.6929 0 1 1 0 1432.3 Z" class="st5"/>
		</g>
		<g id="shape69-103" v:mID="69" v:groupContext="shape" transform="translate(1350.12,-687.805)">
			<title>Circle.69</title>
			<v:userDefs>
				<v:ud v:nameU="visVersion" v:val="VT0(15):26"/>
			</v:userDefs>
			<path d="M0 1432.3 A56.6929 56.6929 0 0 1 113.39 1432.3 A56.6929 56.6929 0 1 1 0 1432.3 Z" class="st2"/>
		</g>
		<g id="shape71-105" v:mID="71" v:groupContext="shape" transform="translate(946.183,-560.246)">
			<title>Circle.71</title>
			<v:userDefs>
				<v:ud v:nameU="visVersion" v:val="VT0(15):26"/>
			</v:userDefs>
			<path d="M0 1432.3 A56.6929 56.6929 0 0 1 113.39 1432.3 A56.6929 56.6929 0 1 1 0 1432.3 Z" class="st2"/>
		</g>
		<g id="shape72-107" v:mID="72" v:groupContext="shape" transform="translate(1080.83,-560.246)">
			<title>Circle.72</title>
			<v:userDefs>
				<v:ud v:nameU="visVersion" v:val="VT0(15):26"/>
			</v:userDefs>
			<path d="M0 1432.3 A56.6929 56.6929 0 0 1 113.39 1432.3 A56.6929 56.6929 0 1 1 0 1432.3 Z" class="st2"/>
		</g>
		<g id="shape73-109" v:mID="73" v:groupContext="shape" transform="translate(1215.47,-560.246)">
			<title>Circle.73</title>
			<v:userDefs>
				<v:ud v:nameU="visVersion" v:val="VT0(15):26"/>
			</v:userDefs>
			<path d="M0 1432.3 A56.6929 56.6929 0 0 1 113.39 1432.3 A56.6929 56.6929 0 1 1 0 1432.3 Z" class="st2"/>
		</g>
		<g id="shape74-111" v:mID="74" v:groupContext="shape" transform="translate(1350.12,-560.246)">
			<title>Circle.74</title>
			<v:userDefs>
				<v:ud v:nameU="visVersion" v:val="VT0(15):26"/>
			</v:userDefs>
			<path d="M0 1432.3 A56.6929 56.6929 0 0 1 113.39 1432.3 A56.6929 56.6929 0 1 1 0 1432.3 Z" class="st5"/>
		</g>
		<g id="shape75-113" v:mID="75" v:groupContext="shape" transform="translate(1765.37,151.61) rotate(90)">
			<title>Circle.75</title>
			<v:userDefs>
				<v:ud v:nameU="visVersion" v:val="VT0(15):26"/>
			</v:userDefs>
			<path d="M0 1432.3 A56.6929 56.6929 0 0 1 113.39 1432.3 A56.6929 56.6929 0 1 1 0 1432.3 Z" class="st1"/>
		</g>
		<g id="shape76-115" v:mID="76" v:groupContext="shape" transform="translate(1765.37,286.256) rotate(90)">
			<title>Circle.76</title>
			<v:userDefs>
				<v:ud v:nameU="visVersion" v:val="VT0(15):26"/>
			</v:userDefs>
			<path d="M0 1432.3 A56.6929 56.6929 0 0 1 113.39 1432.3 A56.6929 56.6929 0 1 1 0 1432.3 Z" class="st1"/>
		</g>
		<g id="shape77-117" v:mID="77" v:groupContext="shape" transform="translate(1637.81,151.61) rotate(90)">
			<title>Circle.77</title>
			<v:userDefs>
				<v:ud v:nameU="visVersion" v:val="VT0(15):26"/>
			</v:userDefs>
			<path d="M0 1432.3 A56.6929 56.6929 0 0 1 113.39 1432.3 A56.6929 56.6929 0 1 1 0 1432.3 Z" class="st1"/>
		</g>
		<g id="shape78-119" v:mID="78" v:groupContext="shape" transform="translate(1637.81,286.256) rotate(90)">
			<title>Circle.78</title>
			<v:userDefs>
				<v:ud v:nameU="visVersion" v:val="VT0(15):26"/>
			</v:userDefs>
			<path d="M0 1432.3 A56.6929 56.6929 0 0 1 113.39 1432.3 A56.6929 56.6929 0 1 1 0 1432.3 Z" class="st1"/>
		</g>
		<g id="shape79-121" v:mID="79" v:groupContext="shape" transform="translate(2679.55,151.61) rotate(90)">
			<title>Circle.79</title>
			<v:userDefs>
				<v:ud v:nameU="visVersion" v:val="VT0(15):26"/>
			</v:userDefs>
			<path d="M0 1432.3 A56.6929 56.6929 0 0 1 113.39 1432.3 A56.6929 56.6929 0 1 1 0 1432.3 Z" class="st3"/>
		</g>
		<g id="shape80-123" v:mID="80" v:groupContext="shape" transform="translate(2679.55,286.256) rotate(90)">
			<title>Circle.80</title>
			<v:userDefs>
				<v:ud v:nameU="visVersion" v:val="VT0(15):26"/>
			</v:userDefs>
			<path d="M0 1432.3 A56.6929 56.6929 0 0 1 113.39 1432.3 A56.6929 56.6929 0 1 1 0 1432.3 Z" class="st3"/>
		</g>
		<g id="shape81-125" v:mID="81" v:groupContext="shape" transform="translate(2551.99,151.61) rotate(90)">
			<title>Circle.81</title>
			<v:userDefs>
				<v:ud v:nameU="visVersion" v:val="VT0(15):26"/>
			</v:userDefs>
			<path d="M0 1432.3 A56.6929 56.6929 0 0 1 113.39 1432.3 A56.6929 56.6929 0 1 1 0 1432.3 Z" class="st3"/>
		</g>
		<g id="shape82-127" v:mID="82" v:groupContext="shape" transform="translate(2551.99,286.256) rotate(90)">
			<title>Circle.82</title>
			<v:userDefs>
				<v:ud v:nameU="visVersion" v:val="VT0(15):26"/>
			</v:userDefs>
			<path d="M0 1432.3 A56.6929 56.6929 0 0 1 113.39 1432.3 A56.6929 56.6929 0 1 1 0 1432.3 Z" class="st3"/>
		</g>
		<g id="shape83-129" v:mID="83" v:groupContext="shape" transform="translate(2707.89,1079.96) rotate(90)">
			<title>Circle.83</title>
			<v:userDefs>
				<v:ud v:nameU="visVersion" v:val="VT0(15):26"/>
			</v:userDefs>
			<path d="M0 1432.3 A56.6929 56.6929 0 0 1 113.39 1432.3 A56.6929 56.6929 0 1 1 0 1432.3 Z" class="st5"/>
		</g>
		<g id="shape84-131" v:mID="84" v:groupContext="shape" transform="translate(2707.89,1214.6) rotate(90)">
			<title>Circle.84</title>
			<v:userDefs>
				<v:ud v:nameU="visVersion" v:val="VT0(15):26"/>
			</v:userDefs>
			<path d="M0 1432.3 A56.6929 56.6929 0 0 1 113.39 1432.3 A56.6929 56.6929 0 1 1 0 1432.3 Z" class="st5"/>
		</g>
		<g id="shape85-133" v:mID="85" v:groupContext="shape" transform="translate(2580.33,1079.96) rotate(90)">
			<title>Circle.85</title>
			<v:userDefs>
				<v:ud v:nameU="visVersion" v:val="VT0(15):26"/>
			</v:userDefs>
			<path d="M0 1432.3 A56.6929 56.6929 0 0 1 113.39 1432.3 A56.6929 56.6929 0 1 1 0 1432.3 Z" class="st5"/>
		</g>
		<g id="shape86-135" v:mID="86" v:groupContext="shape" transform="translate(2580.33,1214.6) rotate(90)">
			<title>Circle.86</title>
			<v:userDefs>
				<v:ud v:nameU="visVersion" v:val="VT0(15):26"/>
			</v:userDefs>
			<path d="M0 1432.3 A56.6929 56.6929 0 0 1 113.39 1432.3 A56.6929 56.6929 0 1 1 0 1432.3 Z" class="st5"/>
		</g>
		<g id="shape87-137" v:mID="87" v:groupContext="shape" transform="translate(1779.55,1083.5) rotate(90)">
			<title>Circle.87</title>
			<v:userDefs>
				<v:ud v:nameU="visVersion" v:val="VT0(15):26"/>
			</v:userDefs>
			<path d="M0 1432.3 A56.6929 56.6929 0 0 1 113.39 1432.3 A56.6929 56.6929 0 1 1 0 1432.3 Z" class="st4"/>
		</g>
		<g id="shape88-139" v:mID="88" v:groupContext="shape" transform="translate(1779.55,1218.15) rotate(90)">
			<title>Circle.88</title>
			<v:userDefs>
				<v:ud v:nameU="visVersion" v:val="VT0(15):26"/>
			</v:userDefs>
			<path d="M0 1432.3 A56.6929 56.6929 0 0 1 113.39 1432.3 A56.6929 56.6929 0 1 1 0 1432.3 Z" class="st4"/>
		</g>
		<g id="shape89-141" v:mID="89" v:groupContext="shape" transform="translate(1651.99,1083.5) rotate(90)">
			<title>Circle.89</title>
			<v:userDefs>
				<v:ud v:nameU="visVersion" v:val="VT0(15):26"/>
			</v:userDefs>
			<path d="M0 1432.3 A56.6929 56.6929 0 0 1 113.39 1432.3 A56.6929 56.6929 0 1 1 0 1432.3 Z" class="st4"/>
		</g>
		<g id="shape90-143" v:mID="90" v:groupContext="shape" transform="translate(1651.99,1218.15) rotate(90)">
			<title>Circle.90</title>
			<v:userDefs>
				<v:ud v:nameU="visVersion" v:val="VT0(15):26"/>
			</v:userDefs>
			<path d="M0 1432.3 A56.6929 56.6929 0 0 1 113.39 1432.3 A56.6929 56.6929 0 1 1 0 1432.3 Z" class="st4"/>
		</g>
	</g>
</svg>
